<?xml version="1.0" encoding="UTF-8" standalone="no"?>
<svg
   width="272"
   height="92"
   version="1.1"
   id="svg6"
   sodipodi:docname="google_logo_g.svg"
   inkscape:version="1.3.2 (091e20e, 2023-11-25, custom)"
   xmlns:inkscape="http://www.inkscape.org/namespaces/inkscape"
   xmlns:sodipodi="http://sodipodi.sourceforge.net/DTD/sodipodi-0.dtd"
   xmlns="http://www.w3.org/2000/svg"
   xmlns:svg="http://www.w3.org/2000/svg">
  <defs
     id="defs6" />
  <sodipodi:namedview
     id="namedview6"
     pagecolor="#ffffff"
     bordercolor="#000000"
     borderopacity="0.25"
     inkscape:showpageshadow="2"
     inkscape:pageopacity="0.0"
     inkscape:pagecheckerboard="0"
     inkscape:deskcolor="#d1d1d1"
     inkscape:zoom="3.6343209"
     inkscape:cx="116.66554"
     inkscape:cy="56.544264"
     inkscape:window-width="1920"
     inkscape:window-height="1111"
     inkscape:window-x="-9"
     inkscape:window-y="-9"
     inkscape:window-maximized="1"
     inkscape:current-layer="svg6" />
  <path
     fill="#4285F4"
     d="m 137.09719,49.939792 v -9.41 h 31.71 c 0.31,1.64 0.47,3.58 0.47,5.68 0,7.06 -1.93,15.79 -8.15,22.01 -6.05,6.3 -13.78,9.66 -24.02,9.66 -18.98,0 -34.94,-15.46 -34.94,-34.44 0,-18.98 15.96,-34.4400004 34.94,-34.4400004 10.5,0 17.98,4.1200004 23.6,9.4900004 l -6.64,6.64 c -4.03,-3.78 -9.49,-6.72 -16.97,-6.72 -13.86,0 -24.7,11.17 -24.7,25.03 0,13.86 10.84,25.03 24.7,25.03 8.99,0 14.11,-3.61 17.39,-6.89 2.66,-2.66 4.41,-6.46 5.1,-11.65 z"
     id="path6"
     style="fill:#999999;fill-opacity:1;fill-rule:nonzero;stroke:none;stroke-width:1.5;stroke-dasharray:none;stroke-opacity:1" />
</svg>
